PathFileType	4	(X/Y/Z)	Run_500 02
DataRate	CameraRate	NumFrames	NumMarkers	Units	OrigDataRate	OrigDataStartFrame	OrigNumFrames
120	120	5	42	mm	120	163	128
Frame#	Time	LASI			RASI			LPSI			RPSI			RTH1			RTH2			RTH3			LTH1			LTH2			LTH3			RTB1			RTB2			RTB3			LTB1			LTB2			LTB3			RCAL			RTOE			RMT5			LCAL			LTOE			LMT5			LACR			RACR			CLAV			C7			RUA1			RUA2			RUA3			RLEL			RMEL			LUA1			LUA2			LUA3			LLEL			LMEL			RFAsuperior			RFAradius			RFAulna			LFAsuperior			LFAradius			LFAulna			
		X1	Y1	Z1	X2	Y2	Z2	X3	Y3	Z3	X4	Y4	Z4	X5	Y5	Z5	X6	Y6	Z6	X7	Y7	Z7	X8	Y8	Z8	X9	Y9	Z9	X10	Y10	Z10	X11	Y11	Z11	X12	Y12	Z12	X13	Y13	Z13	X14	Y14	Z14	X15	Y15	Z15	X16	Y16	Z16	X17	Y17	Z17	X18	Y18	Z18	X19	Y19	Z19	X20	Y20	Z20	X21	Y21	Z21	X22	Y22	Z22	X23	Y23	Z23	X24	Y24	Z24	X25	Y25	Z25	X26	Y26	Z26	X27	Y27	Z27	X28	Y28	Z28	X29	Y29	Z29	X30	Y30	Z30	X31	Y31	Z31	X32	Y32	Z32	X33	Y33	Z33	X34	Y34	Z34	X35	Y35	Z35	X36	Y36	Z36	X37	Y37	Z37	X38	Y38	Z38	X39	Y39	Z39	X40	Y40	Z40	X41	Y41	Z41	X42	Y42	Z42	

163	1.45	814.3941170000001	988.2974400000001	-477.85464	767.640931	984.678611	-231.026263	633.6116479999999	1011.887662	-424.531626	617.414442	1015.5851	-339.803496	705.553735	799.1236709999999	-207.226801	751.661574	674.568355	-241.709876	650.210832	559.536555	-251.354088	821.50821	861.207524	-528.339116	933.620461	807.419306	-510.89444	960.722006	665.621837	-528.270907	629.818339	349.351153	-327.016887	563.397666	309.449707	-275.54204	514.12092	210.787322	-351.307617	925.912285	504.109592	-445.587754	816.708874	509.029938	-507.860731	735.259486	476.710699	-440.379176	337.07831	139.754498	-355.422559	541.090821	60.230077	-360.993236	504.200582	62.953538	-276.376323	581.6791919999999	543.6606870000001	-460.118484	651.380782	338.960448	-429.016487	624.125637	346.547336	-518.559624	777.5196	1461.562938	-528.303013	801.34148	1433.167679	-159.919696	891.605403	1393.957432	-329.506604	757.46106	1492.429441	-344.029929	793.711914	1314.514645	-105.8372	825.831628	1253.122342	-104.669511	730.555706	1217.20238	-68.04345499999999	776.921305	1148.602713	-33.04781	740.048045	1106.352083	-103.705482	717.873018	1421.990524	-582.241381	641.8471479999999	1377.399435	-555.66849	662.685309	1357.61425	-628.9857960000001	589.0490579999999	1284.82424	-684.096728	549.384737	1248.870159	-615.179002	856.815305	1168.675801	-55.775727	992.318623	1209.358597	-146.698382	994.5953459999999	1142.346101	-130.495084	645.737316	1238.72434	-695.444302	768.146447	1107.573763	-649.697278	717.244532	1075.829372	-682.126435	
164	1.458333	815.8612419999999	995.172621	-474.187383	770.503905	988.469367	-230.978897	635.959807	1018.367944	-423.840341	620.596041	1021.79161	-338.132404	697.1344	803.4982209999999	-206.854249	734.327451	677.155564	-240.295258	624.638142	568.699458	-250.635472	826.189492	871.184496	-528.211217	938.5269960000001	820.091915	-507.241796	972.033892	680.281746	-525.261906	596.6560950000001	358.404856	-323.692304	529.241632	320.17058	-272.007024	480.512798	220.488702	-347.164891	948.082555	508.98871	-442.383832	838.876622	501.628333	-504.52524	761.079066	460.311189	-437.297834	303.534952	153.36367	-352.752474	501.707637	60.904435	-362.754001	463.109183	63.417205	-276.996853	600.715875	509.196709	-456.833447	694.8122059999999	314.592527	-425.888596	666.534595	318.692525	-515.63882	770.672228	1469.214707	-526.686655	806.475667	1440.233667	-160.815735	890.8906459999999	1402.238829	-333.014757	755.4437380000001	1497.892897	-342.962757	804.388411	1321.028357	-107.66739	836.896349	1259.852718	-110.362195	745.090595	1223.932969	-64.535257	793.0077649999999	1155.308803	-35.729341	750.863218	1112.99212	-104.045194	710.6446989999999	1431.426604	-579.931077	635.00256	1386.966558	-553.547855	654.8502099999999	1368.260687	-627.62276	580.098181	1296.975128	-682.454033	541.5148	1259.4891	-613.71537	870.046214	1178.673402	-63.325915	996.2461510000001	1225.133236	-163.954238	1002.530534	1158.477609	-148.267916	637.3329639999999	1253.078989	-695.666996	762.4158660000001	1123.513092	-655.595383	711.6468139999999	1090.940476	-686.615976	
165	1.466667	817.255504	1001.466758	-470.697191	773.838605	992.29909	-230.972901	638.4837649999999	1024.803855	-423.184294	624.246787	1028.06921	-336.3405	689.08609	809.006399	-206.258395	717.864814	681.445882	-238.150837	600.207268	580.191885	-249.15001	830.918981	880.936025	-527.749546	943.08102	831.981774	-504.102928	980.815571	693.4456750000001	-522.191238	565.212184	370.282746	-319.649748	497.056337	333.592519	-267.43556	449.93396	232.139569	-341.761666	968.8937089999999	513.3543529999999	-439.398738	860.86353	493.52935	-501.140859	788.283264	443.607162	-433.997971	273.685295	169.713929	-349.544094	463.244085	61.593825	-364.300429	423.255468	64.22850099999999	-276.977154	623.052944	473.560262	-452.796751	740.286353	291.753583	-422.521684	711.0194289999999	292.326676	-512.09091	764.414137	1476.452253	-524.875927	811.030907	1447.565493	-162.074702	889.638559	1410.676259	-336.23786	753.498271	1503.239047	-342.025024	814.081085	1328.316935	-109.422967	846.505661	1267.250809	-115.608875	758.728169	1231.416906	-61.675756	808.061829	1163.047779	-38.076834	760.9753009999999	1120.090592	-103.260021	704.063999	1440.573994	-577.3823	628.631683	1396.680108	-551.537501	647.747421	1378.769138	-626.112291	572.047389	1308.975435	-681.006601	534.090537	1269.972535	-612.664348	882.022191	1189.353716	-70.35718900000001	997.8791660000001	1240.606802	-180.476811	1008.04849	1174.506688	-165.213524	629.611159	1267.128736	-695.5953040000001	757.101847	1139.212902	-660.993792	706.703738	1106.048459	-691.202467	
166	1.475	818.488594	1007.254862	-467.901354	777.398672	995.906867	-231.074489	641.19069	1031.183797	-422.671765	628.1356919999999	1034.09851	-334.659407	681.8295010000001	815.5801290000001	-205.434297	702.455019	687.0912039999999	-235.844454	577.410812	593.657636	-247.053187	835.648154	890.011105	-526.271314	947.176799	842.911004	-501.559569	986.836315	704.510735	-518.722861	536.40104	384.536424	-314.695069	467.087017	349.430325	-262.268288	422.732815	245.315183	-335.370878	988.198127	517.05398	-436.726795	882.661098	484.884857	-497.82603	816.672199	426.979997	-430.576177	248.221714	189.002599	-346.020963	425.773292	62.999501	-364.349789	384.678868	65.858898	-276.116164	648.61638	437.3241	-448.085317	787.306599	270.826148	-419.095035	757.117138	267.81322	-508.004707	758.911364	1483.096686	-523.04239	814.7918100000001	1454.899216	-163.660208	887.752059	1418.958649	-339.196109	751.919426	1508.452404	-341.170176	822.480828	1336.178853	-110.959643	854.734873	1275.147765	-120.005582	771.111124	1239.334466	-59.382926	821.920091	1171.461777	-40.019982	770.457863	1127.340418	-101.563022	698.217658	1449.286649	-574.737941	622.866344	1406.212132	-549.667643	641.384349	1388.910923	-624.521886	564.719075	1320.606987	-679.7913569999999	527.299301	1280.105315	-611.913648	892.555217	1200.351695	-76.946223	997.366709	1255.54288	-195.850306	1011.273101	1190.130605	-181.023212	622.436493	1280.609949	-695.5909799999999	752.317673	1154.549093	-666.1012449999999	702.4380650000001	1120.916074	-695.9859740000001	
167	1.483333	819.522262	1012.761152	-465.947741	780.882519	999.144056	-231.445554	644.053992	1037.467197	-422.358944	631.970421	1039.714374	-333.301095	675.478447	822.913031	-204.365373	688.104379	693.602849	-233.523348	556.909453	608.3820009999999	-244.770859	840.089835	898.141333	-523.747834	950.614734	852.470153	-499.454549	990.128673	713.077542	-514.630591	511.108866	400.202487	-308.937754	439.848132	366.910503	-257.171756	398.668595	259.587844	-328.612445	1005.975029	519.824308	-434.486022	904.175868	475.800685	-494.670435	845.9008669999999	410.751989	-426.999339	227.13652	211.261236	-342.592946	389.381295	66.421335	-362.05855	346.839242	69.29931500000001	-274.495333	677.155211	401.085418	-442.808954	835.270954	252.407216	-415.483024	804.460051	245.657004	-503.541696	754.137595	1489.026581	-521.318617	817.681729	1461.92071	-165.493809	885.365225	1426.689481	-341.921283	750.768857	1513.411339	-340.335852	829.536793	1344.307224	-112.181905	861.867721	1283.302709	-123.336203	782.128779	1247.346582	-57.438266	834.491911	1180.14179	-41.508071	779.283856	1134.501475	-99.225195	693.109114	1457.384971	-572.1403350000001	617.775592	1415.285727	-547.99091	635.762627	1398.451219	-622.964013	558.045974	1331.686129	-678.771935	521.209691	1289.696987	-611.366372	901.5201049999999	1211.213986	-83.091981	994.9617929999999	1269.627359	-209.726069	1012.406749	1205.011035	-195.428456	615.880175	1293.420808	-695.949315	748.147974	1169.428296	-671.040886	698.845919	1135.340837	-700.953277	
